<svg xmlns="http://www.w3.org/2000/svg" width="3223" height="852" viewBox="0 0 3223 852" fill="none"><path d="M641 5.90445C657.478 -0.88436 669.109 -1.48719 686.5 2.40445C707.166 7.02881 713.458 21.6747 732 31.9044C769.279 52.4718 814.97 32.3176 834 70.4044C841.892 86.1995 827.535 104.779 842 114.904C850.314 120.724 859.258 113.985 867.5 119.904C875.782 125.853 879.675 142.095 880.381 145.337C880.458 145.692 880.712 145.974 881.056 146.091C884.607 147.301 904.265 154.299 913.5 163.904C921.633 172.365 927.888 189.306 929.231 193.127C929.391 193.583 929.193 194.073 928.77 194.306L897.416 211.528C896.51 212.027 896.863 213.404 897.897 213.404H928.352C928.958 213.404 929.429 213.901 929.334 214.5C928.002 222.903 918.374 277.068 890 287.404C876.576 292.295 854.868 288.864 848.689 287.732C847.932 287.593 847.295 288.319 847.528 289.053C850.816 299.413 868.4 356.355 870.5 395.404C872.446 431.594 858.235 451.977 863 487.904C868.496 529.349 891.974 546.944 902.5 587.404C923.899 669.658 902.767 804.707 902.503 806.389C902.496 806.435 902.5 806.436 902.5 806.484V819.404C902.5 819.957 902.948 820.404 903.5 820.404H971C971.552 820.404 972 820.852 972 821.404V847.404C972 847.957 971.552 848.404 971 848.404H1C0.447715 848.404 0 847.957 0 847.404V817.904C9.89406e-05 817.352 0.447776 816.904 1 816.904H40.9424C41.7768 816.904 42.2637 815.947 41.7666 815.277C37.2905 809.243 22.1053 787.643 21 770.905C17.5 717.906 20.7339 675.845 57 630.904C75.9841 607.38 116.385 582.95 121.057 580.167C121.341 579.997 121.512 579.707 121.534 579.376L125 526.404C125.027 526.254 142.189 430.934 178 383.404C214.948 334.365 246.635 308.867 305.5 291.404C370.311 272.178 417.187 335.433 478 305.904C522.013 284.533 521.786 240.538 562.5 213.404C579.213 202.267 607.061 189.805 611.804 187.711C612.221 187.527 612.454 187.118 612.385 186.667C611.477 180.786 605.572 141.059 607.5 114.904C610.773 70.4928 599.826 22.8685 641 5.90445ZM289.5 638.405C289.5 638.405 261.5 694.905 238 701.405C214.5 707.905 179 756.405 179 756.405C179 756.405 197.028 769.944 203 782.405C208.647 794.187 208.5 815.405 208.5 815.405H349.5C345.441 746.515 331.627 707.715 289.5 638.405ZM681.5 584.405L615 596.905C615 596.905 552.237 669.162 497 678.405C439.245 688.07 353.5 634.905 353.5 634.905C390.891 669.294 457.5 687.905 462 690.905C466.5 693.905 461.613 722.515 469.5 740.405C478.214 760.173 499.923 761.535 505.5 782.405C508.827 794.856 505.5 815.405 505.5 815.405H542.5C542.5 815.405 522.184 791.038 523.5 772.905C525.117 750.638 552.387 751.11 560 728.905C567.675 706.519 543.404 689.533 558 670.905C575.44 648.648 620.5 625.905 620.5 609.905L694 596.905C694 596.905 708.722 660.608 704.5 701.405C699.644 748.336 664.5 815.405 664.5 815.405H725.5L729 782.405C729 782.405 746.268 768.649 751 750.905C757.714 725.725 732.014 720.018 725.5 695.405C716.936 663.048 726.022 638.515 714 605.405C697.767 560.7 638 514.905 638 514.905L681.5 584.405Z" fill="white"></path><path d="M1495.2 265.4V354.2L1317.6 352.6C1254.67 352.6 1223.2 364.333 1223.2 387.8V446.2C1225.33 466.467 1248 482.467 1291.2 494.2L1365.6 516.6C1464.8 542.2 1514.67 591 1515.2 663V710.2C1515.73 804.6 1452 851.8 1324 851.8L1120.8 843.8V754.2L1319.2 756.6C1374.13 756.6 1402.13 741.133 1403.2 710.2V663C1403.2 641.133 1379.73 623.533 1332.8 610.2L1247.2 582.2C1161.33 556.067 1116.27 511 1112 447V387.8C1112 300.333 1180.53 256.6 1317.6 256.6L1495.2 265.4ZM1943.21 851L1895.21 715.8H1664.01L1615.21 851H1505.61L1687.21 303C1697.35 272.067 1716.55 256.6 1744.81 256.6H1813.61C1841.88 256.6 1861.08 272.067 1871.21 303L2052.81 851H1943.21ZM1864.01 619.8L1785.61 379.8H1775.21L1695.21 619.8H1864.01ZM2531.31 352.6H2240.91C2233.45 352.6 2229.71 359.267 2229.71 372.6V507H2462.51V603.8H2229.71V851H2120.11V372.6C2120.11 295.267 2160.38 256.6 2240.91 256.6L2531.31 263V352.6ZM2685.29 256.6V851H2575.69V256.6H2685.29ZM3212.58 352.6H2922.18C2914.71 352.6 2910.98 359.267 2910.98 372.6V508.6H3143.78V599H2910.98V736.6C2910.98 749.4 2914.71 755.8 2922.18 755.8H3210.98V844.6L2922.18 851C2841.11 851 2800.58 812.867 2800.58 736.6V372.6C2801.11 295.267 2841.65 256.6 2922.18 256.6L3212.58 263V352.6Z" fill="white"></path></svg>